Coordinates
version=1
nRows=11
nColumns=63
inDegrees=yes

Units are S.I. units (second, meters, Newtons, ...)
If the header above contains a line with 'inDegrees', this indicates whether rotational values are in degrees (yes) or radians (no).

endheader
time	pelvis_tilt	pelvis_list	pelvis_rotation	pelvis_tx	pelvis_ty	pelvis_tz	hip_flexion_r	hip_adduction_r	hip_rotation_r	knee_angle_r	knee_angle_r_beta	ankle_angle_r	subtalar_angle_r	mtp_angle_r	hip_flexion_l	hip_adduction_l	hip_rotation_l	knee_angle_l	knee_angle_l_beta	ankle_angle_l	subtalar_angle_l	mtp_angle_l	L5_S1_Flex_Ext	L5_S1_Lat_Bending	L5_S1_axial_rotation	L4_L5_Flex_Ext	L4_L5_Lat_Bending	L4_L5_axial_rotation	L3_L4_Flex_Ext	L3_L4_Lat_Bending	L3_L4_axial_rotation	L2_L3_Flex_Ext	L2_L3_Lat_Bending	L2_L3_axial_rotation	L1_L2_Flex_Ext	L1_L2_Lat_Bending	L1_L2_axial_rotation	L1_T12_Flex_Ext	L1_T12_Lat_Bending	L1_T12_axial_rotation	Abs_r3	Abs_r2	Abs_r1	Abs_t1	Abs_t2	neck_flexion	neck_bending	neck_rotation	arm_flex_r	arm_add_r	arm_rot_r	elbow_flex_r	pro_sup_r	wrist_flex_r	wrist_dev_r	arm_flex_l	arm_add_l	arm_rot_l	elbow_flex_l	pro_sup_l	wrist_flex_l	wrist_dev_l
2.067797	1.212307	-2.846652	93.075249	0.170562	0.980349	0.471104	7.256902	1.182504	-11.506464	10.829304	0.189007	32.222859	-1.886994	0.000000	5.426110	-1.198325	0.723628	5.841163	0.101948	31.920655	8.257567	0.000000	0.160621	0.107271	-1.622158	0.298289	0.142671	-1.723543	0.263884	0.260819	-1.723543	0.183574	0.260819	-1.419388	0.149153	0.218747	-1.318003	0.091779	0.166163	-1.216619	1.147299	1.213473	-9.021957	0.000000	0.000000	4.124266	5.930193	4.217285	-12.455460	-93.025756	-7.981072	16.619555	39.328960	4.813270	17.510006	29.821655	-103.366670	70.760663	15.904240	75.516373	9.092096	-18.922103
2.084746	1.152892	-2.810301	92.976487	0.170846	0.980459	0.471213	7.280598	1.131148	-11.451717	10.926853	0.190710	32.245553	-2.021878	0.000000	5.470562	-1.194889	-0.194472	6.029348	0.105232	32.211357	9.298093	0.000000	0.157743	0.095423	-1.602058	0.292945	0.126912	-1.702186	0.259156	0.232011	-1.702186	0.180285	0.232011	-1.401800	0.146480	0.194586	-1.301672	0.090135	0.147810	-1.201543	1.126744	1.079440	-8.910163	0.000000	0.000000	4.023312	6.371735	3.848396	-9.510700	-92.849651	-5.972966	16.732599	40.067562	5.011421	17.253713	29.233674	-103.183568	69.537358	15.586644	77.417424	8.968898	-19.212560
2.101695	1.080862	-2.770364	92.848444	0.171131	0.980557	0.471312	7.323153	1.056132	-11.431184	11.075815	0.193309	32.323581	-2.053866	0.000000	5.484152	-1.176186	-1.125178	6.173961	0.107756	32.473000	10.317567	0.000000	0.153897	0.080852	-1.564935	0.285802	0.107534	-1.662743	0.252837	0.196585	-1.662743	0.175889	0.196585	-1.369318	0.142909	0.164874	-1.271510	0.087937	0.125240	-1.173701	1.099271	0.914618	-8.703698	0.000000	0.000000	3.928208	6.795645	3.332203	-4.492141	-92.702154	-1.936653	16.892398	40.996787	5.185744	16.983259	27.915891	-103.127008	68.329294	15.524999	78.071264	8.752614	-19.474543
2.118644	1.057057	-2.739669	92.741788	0.171158	0.980633	0.471359	7.388160	1.000650	-11.513463	11.269032	0.196682	32.434115	-1.959398	0.000000	5.476176	-1.183747	-1.784374	6.257633	0.109216	32.657300	11.020165	0.000000	0.150977	0.076632	-1.559104	0.280379	0.101920	-1.656548	0.248040	0.186322	-1.656548	0.172552	0.186322	-1.364216	0.140197	0.156267	-1.266772	0.086268	0.118702	-1.169328	1.078413	0.866872	-8.671271	0.000000	0.000000	3.849394	7.049713	3.059976	-3.513415	-92.589789	-1.486791	16.924524	41.582669	5.415021	16.739017	27.996958	-102.956522	67.362474	15.267053	79.625297	9.151705	-19.647115
2.135593	1.039512	-2.701026	92.642589	0.171117	0.980716	0.471385	7.450574	0.942512	-11.626482	11.490503	0.200547	32.554503	-1.808869	0.000000	5.434255	-1.188106	-2.299702	6.299741	0.109951	32.775296	11.543493	0.000000	0.147306	0.073789	-1.583627	0.273561	0.098139	-1.682603	0.242008	0.179411	-1.682603	0.168356	0.179411	-1.385673	0.136788	0.150470	-1.286697	0.084170	0.114299	-1.187720	1.052189	0.834716	-8.807657	0.000000	0.000000	3.721890	7.249801	2.973975	-5.245522	-92.279282	-3.718955	16.651273	42.310957	5.665036	16.612853	29.424376	-102.872559	68.092873	15.159359	80.702001	9.210515	-19.861137
2.152542	1.050246	-2.672734	92.558800	0.170914	0.980767	0.471356	7.528481	0.902473	-11.730318	11.744062	0.204973	32.652012	-1.674087	0.000000	5.382234	-1.205186	-2.687608	6.311940	0.110164	32.849704	11.927865	0.000000	0.145242	0.077691	-1.593913	0.269729	0.103329	-1.693533	0.238618	0.188897	-1.693533	0.165997	0.188897	-1.394674	0.134872	0.158427	-1.295054	0.082991	0.120343	-1.195435	1.037448	0.878853	-8.864866	0.000000	0.000000	3.617790	7.293748	2.925044	-5.598507	-92.176398	-4.257916	16.477958	42.745891	5.818621	16.553127	29.928639	-102.702833	68.719366	14.974130	80.996432	9.207929	-20.086523
2.169492	1.062547	-2.651830	92.468047	0.170666	0.980787	0.471294	7.631094	0.857870	-11.822512	12.054953	0.210399	32.728885	-1.539988	0.000000	5.311727	-1.214085	-2.973797	6.286563	0.109721	32.872062	12.172077	0.000000	0.143798	0.083253	-1.587372	0.267048	0.110727	-1.686582	0.236247	0.202422	-1.686582	0.164347	0.202422	-1.388950	0.133531	0.169770	-1.289739	0.082166	0.128960	-1.190529	1.027138	0.941779	-8.828484	0.000000	0.000000	3.548464	7.243654	2.884237	-4.741298	-92.223337	-3.286387	16.387872	42.953511	5.802627	16.538160	29.513429	-102.540072	69.416464	14.856363	80.390219	8.856685	-20.275825
2.186441	1.074181	-2.636428	92.372491	0.170384	0.980778	0.471216	7.755990	0.811027	-11.875853	12.415409	0.216690	32.775135	-1.436776	0.000000	5.229219	-1.213520	-3.181134	6.236976	0.108856	32.854386	12.303391	0.000000	0.142603	0.090308	-1.566081	0.264827	0.120110	-1.663961	0.234282	0.219576	-1.663961	0.162981	0.219576	-1.370321	0.132421	0.184157	-1.272441	0.081483	0.139888	-1.174561	1.018596	1.021587	-8.710072	0.000000	0.000000	3.518928	7.096981	2.869408	-2.914553	-92.401446	-1.094609	16.364520	42.953253	5.662144	16.577829	28.214415	-102.362316	70.157364	14.755157	78.885463	8.249679	-20.441324
2.203390	1.113497	-2.633294	92.295884	0.169967	0.980749	0.471146	7.908101	0.784724	-11.884786	12.813404	0.223636	32.765035	-1.409421	0.000000	5.169474	-1.232853	-3.439080	6.206230	0.108319	32.859445	12.525620	0.000000	0.143182	0.103931	-1.537328	0.265903	0.138229	-1.633411	0.235233	0.252699	-1.633411	0.163643	0.252699	-1.345162	0.132959	0.211937	-1.249079	0.081814	0.160990	-1.152996	1.022734	1.175693	-8.550158	0.000000	0.000000	3.526263	6.812441	2.958641	-0.154192	-92.699499	2.206818	16.395871	42.849423	5.407556	16.671743	27.105284	-101.929828	69.870273	14.318153	78.880109	8.104635	-20.508427
2.220339	1.161412	-2.637677	92.212194	0.169501	0.980688	0.471069	8.079360	0.765766	-11.840701	13.240972	0.231099	32.724709	-1.426881	0.000000	5.112546	-1.253006	-3.659774	6.169080	0.107671	32.862358	12.686362	0.000000	0.144531	0.120862	-1.497907	0.268408	0.160746	-1.591526	0.237449	0.293863	-1.591526	0.165184	0.293863	-1.310668	0.134211	0.246461	-1.217049	0.082585	0.187215	-1.123430	1.032368	1.367213	-8.330907	0.000000	0.000000	3.594817	6.408941	3.129432	3.123460	-93.127888	6.338917	16.528268	42.453698	5.022656	16.771198	25.334130	-101.435804	69.152448	13.792063	78.941561	7.990372	-20.562275
2.237288	1.218473	-2.647227	92.150763	0.168954	0.980592	0.470991	8.260559	0.739822	-11.870288	13.692031	0.238971	32.689943	-1.368674	0.000000	5.066765	-1.275914	-3.866701	6.139085	0.107147	32.883672	12.853044	0.000000	0.146390	0.141087	-1.456353	0.271860	0.187646	-1.547375	0.240503	0.343039	-1.547375	0.167309	0.343039	-1.274309	0.135937	0.287705	-1.183287	0.083647	0.218544	-1.092265	1.045646	1.596005	-8.099800	0.000000	0.000000	3.728223	5.889831	3.395243	6.837346	-93.658101	10.981345	16.791142	41.981971	4.532609	16.926913	22.975039	-100.912545	67.942441	13.227945	79.308050	7.914661	-20.590349
